<?xml version="1.0" encoding="utf-8"?>
<!-- Generator: Adobe Illustrator 15.1.0, SVG Export Plug-In . SVG Version: 6.00 Build 0)  -->
<!DOCTYPE svg PUBLIC "-//W3C//DTD SVG 1.1//EN" "http://www.w3.org/Graphics/SVG/1.1/DTD/svg11.dtd">
<svg version="1.1" id="Capa_1" xmlns="http://www.w3.org/2000/svg" xmlns:xlink="http://www.w3.org/1999/xlink" x="0px" y="0px"
	 width="538.208px" height="612.001px" viewBox="36.896 66.001 538.208 612.001"
	 enable-background="new 36.896 66.001 538.208 612.001" xml:space="preserve">
<path fill="#444444" d="M555.158,66.001H56.82c-11.937,0-20.893,10.101-19.84,22.037L82.497,598.11
	c1.055,11.927,11.371,24.408,22.941,27.633l179.435,49.844c11.555,3.202,30.441,3.223,42.013,0.041l179.657-49.771
	c11.572-3.216,21.889-15.584,22.941-27.531L575.02,88.04C576.074,76.102,567.156,66.001,555.158,66.001z M468.732,250.123
	c-0.01,0.078-0.068,0.139-0.146,0.152c-0.078,0.013-0.153-0.027-0.187-0.1l-140.582,57.61c-2.003,0.82-3.146,2.943-2.729,5.067
	c0.419,2.123,2.281,3.655,4.445,3.655h109.351c5.817,0,11.358,2.47,15.249,6.796c3.889,4.326,5.758,10.1,5.143,15.883
	l-17.088,160.279c-0.839,7.863-6.121,14.544-13.583,17.169l-116.065,40.839c-4.371,1.54-9.136,1.554-13.518,0.033l-115.525-40.018
	c-7.506-2.603-12.834-9.303-13.678-17.199l-7.745-72.587c-0.407-3.812,0.824-7.615,3.386-10.464
	c2.562-2.853,6.213-4.479,10.046-4.479h32.147c6.908,0,12.702,5.21,13.432,12.078l4.752,44.617l79.989,27.805L386.18,469.2
	l9.828-92.534h-227.2c-6.887,0-12.671-5.183-13.427-12.027l-4.326-39.219c-0.66-5.982,2.715-11.678,8.277-13.971l145.41-59.95
	c1.648-0.68,2.587-2.429,2.242-4.179c-0.35-1.749-1.88-3.008-3.665-3.008H150.227c-4.609,0-8.475-3.481-8.956-8.062l-4.429-42.154
	c-0.267-2.537,0.557-5.068,2.264-6.965c1.707-1.896,4.14-2.979,6.691-2.979h320.34c2.565,0,5.011,1.095,6.719,3.007
	c1.708,1.914,2.52,4.465,2.229,7.013L468.732,250.123z"/>
</svg>
