<?xml version="1.0" encoding="utf-8"?>
<!-- Generator: Adobe Illustrator 15.1.0, SVG Export Plug-In . SVG Version: 6.00 Build 0)  -->
<!DOCTYPE svg PUBLIC "-//W3C//DTD SVG 1.1//EN" "http://www.w3.org/Graphics/SVG/1.1/DTD/svg11.dtd">
<svg version="1.1" id="Layer_1" xmlns="http://www.w3.org/2000/svg" xmlns:xlink="http://www.w3.org/1999/xlink" x="0px" y="0px"
	 width="612px" height="612px" viewBox="0 90 612 612" enable-background="new 0 90 612 612" xml:space="preserve">
<g>
	<path fill="#444444" d="M250.448,296.528c-4.764,19.186-33.75,129.858-33.75,129.858h70.952c0,0-31.556-110.672-36.271-129.858
		H250.448z"/>
	<path fill="#444444" d="M0,90v612h612V90H0z M322.844,562.923l-24.786-82.203h-91.722l-22.965,82.203h-75.154l98.121-320.543
		h94.989l99.379,320.543H322.844z M501.401,562.923h-72.396v-232.46h72.396V562.923L501.401,562.923z M464.761,301.85
		c-22.777,0-38.088-16.246-37.575-36.128c-0.513-20.96,14.799-36.645,38.137-36.645c23.34,0,37.903,15.684,38.462,36.645
		C503.783,285.604,488.661,301.85,464.761,301.85z"/>
</g>
</svg>
