<?xml version="1.0" encoding="utf-8"?>
<!-- Generator: Adobe Illustrator 15.1.0, SVG Export Plug-In . SVG Version: 6.00 Build 0)  -->
<!DOCTYPE svg PUBLIC "-//W3C//DTD SVG 1.1//EN" "http://www.w3.org/Graphics/SVG/1.1/DTD/svg11.dtd">
<svg version="1.1" id="Layer_1" xmlns="http://www.w3.org/2000/svg" xmlns:xlink="http://www.w3.org/1999/xlink" x="0px" y="0px"
	 width="409px" height="405px" viewBox="101.5 215.44 409 405" enable-background="new 101.5 215.44 409 405" xml:space="preserve">
<g id="iuFwdc.tif">
	<g>
		<g>
			<path fill="#444444" d="M510.5,324.44v1c-12.09,26.6-33.41,43.22-65,43c-56.19-0.4-119.58-50.2-113-109
				c2.07-18.47,12.25-33.77,23-44C341.08,303.25,438.4,369.27,510.5,324.44z"/>
			<path fill="#444444" d="M502.5,521.44c-28.5,52.158-69.18,92.148-143,99h-31c-122.7-16.021-211.82-89.882-227-214v-22
				c3.13-50.87,29.51-83.82,52-112c-33.92,110.27,25.69,197.49,88,243c32.82,23.979,76.05,45.34,129,47
				C426.12,564.19,468.05,545,502.5,521.44z"/>
			<path fill="#444444" d="M505.5,413.44c-21.09,39.29-52.14,71.188-110,71c-82.46-0.262-160.93-70.2-167-149
				c-3.22-41.81,11.68-72.64,31-94c0.91-1,3.43-5.58,6-4c-41.61,135.06,127.84,254.16,240,175
				C506.63,412.63,506.06,413.44,505.5,413.44z"/>
		</g>
	</g>
</g>
</svg>
