<?xml version="1.0" encoding="utf-8"?>
<!-- Generator: Adobe Illustrator 15.1.0, SVG Export Plug-In . SVG Version: 6.00 Build 0)  -->
<!DOCTYPE svg PUBLIC "-//W3C//DTD SVG 1.1//EN" "http://www.w3.org/Graphics/SVG/1.1/DTD/svg11.dtd">
<svg version="1.1" id="Layer_1" xmlns="http://www.w3.org/2000/svg" xmlns:xlink="http://www.w3.org/1999/xlink" x="0px" y="0px"
	 width="200px" height="200px" viewBox="0 0 200 200" enable-background="new 0 0 200 200" xml:space="preserve">
<g>
	<circle fill="#696969" cx="99.528" cy="99.681" r="18.694"/>
</g>
<g>
	<path fill="#696969" d="M137.954,188.571c-21.494,0-52.482-28.034-75.355-68.174C49.772,97.889,41.19,74.663,38.436,55.001
		c-2.958-21.115,1.213-36.05,11.748-42.052c3.172-1.808,6.792-2.725,10.759-2.725c21.494,0,52.481,28.034,75.356,68.174
		c12.827,22.51,21.406,45.734,24.163,65.397c2.957,21.115-1.215,36.049-11.749,42.051
		C145.541,187.655,141.921,188.571,137.954,188.571z M60.942,19.572c-2.324,0-4.387,0.503-6.131,1.498
		c-6.881,3.921-9.476,15.816-7.12,32.635c2.594,18.518,10.772,40.561,23.027,62.065c23.74,41.659,51.793,63.455,67.235,63.455
		c2.323,0,4.387-0.505,6.13-1.499c6.882-3.92,9.477-15.815,7.12-32.634c-2.595-18.519-10.771-40.561-23.027-62.065
		C104.438,41.368,76.384,19.572,60.942,19.572z"/>
</g>
<g>
	<path fill="#696969" d="M61.319,188.801c-3.909,0-7.484-0.895-10.625-2.661c-10.57-5.942-14.831-20.854-11.996-41.985
		c2.64-19.679,11.085-42.953,23.78-65.537C85.188,38.216,116.072,10,137.583,10c3.91,0,7.483,0.895,10.626,2.662
		c10.569,5.94,14.83,20.851,11.995,41.984c-2.641,19.679-11.085,42.955-23.778,65.538
		C113.715,160.584,82.829,188.801,61.319,188.801z M137.583,19.347c-15.06,0-43.645,22.378-66.958,63.85
		c-26.035,46.315-28.986,87.131-15.352,94.794c1.726,0.972,3.759,1.464,6.045,1.464c15.06,0,43.644-22.378,66.958-63.85
		c12.129-21.578,20.177-43.668,22.661-62.201c2.259-16.833-0.406-28.713-7.31-32.594C141.902,19.838,139.868,19.347,137.583,19.347z
		"/>
</g>
<g>
	<path fill="#696969" d="M97.849,141.817c-55.63,0-97.721-17.903-97.906-41.646c-0.095-12.125,10.73-23.23,30.479-31.27
		c18.391-7.486,42.788-11.72,68.697-11.922c56.555-0.443,99.649,17.624,99.837,41.639c0.094,12.126-10.729,23.23-30.479,31.269
		c-18.392,7.487-42.789,11.721-68.696,11.923C99.135,141.814,98.491,141.817,97.849,141.817z M101.049,66.319
		c-0.617,0-1.237,0.002-1.858,0.008c-24.753,0.193-47.924,4.183-65.245,11.232C18.215,83.962,9.228,92.177,9.29,100.098
		c0.122,15.635,35.736,32.373,88.559,32.373c0.618,0,1.238-0.003,1.858-0.007c53.132-0.415,90.023-18.131,89.901-33.772
		C189.488,83.058,153.874,66.319,101.049,66.319z"/>
</g>
</svg>
