<?xml version="1.0" encoding="utf-8"?>
<!-- Generator: Adobe Illustrator 15.1.0, SVG Export Plug-In . SVG Version: 6.00 Build 0)  -->
<!DOCTYPE svg PUBLIC "-//W3C//DTD SVG 1.1//EN" "http://www.w3.org/Graphics/SVG/1.1/DTD/svg11.dtd">
<svg version="1.1" id="Layer_1" xmlns="http://www.w3.org/2000/svg" xmlns:xlink="http://www.w3.org/1999/xlink" x="0px" y="0px"
	 width="679.133px" height="634.479px" viewBox="-18.604 98.315 679.133 634.479"
	 enable-background="new -18.604 98.315 679.133 634.479" xml:space="preserve">
<g>
	<polygon fill="#444444" points="556.271,145.277 462.033,199.525 177.399,199.525 78.681,143.595 185.809,98.315 456.74,98.315 	
		"/>
	<path fill="#444444" d="M161.644,212.107L86.654,326.583l-105.258-72.062l83.52-97.412c0.313,0.25,0.688,0.498,1.059,0.684
		L161.644,212.107z"/>
	<polygon fill="#444444" points="299.351,700.717 -17.983,277.629 82.293,346.202 	"/>
	<polygon fill="#444444" points="531.918,349.004 318.969,697.042 105.962,349.004 	"/>
	<polygon fill="#444444" points="179.955,218.209 459.416,218.209 531.48,330.318 106.583,330.318 	"/>
	<path fill="#444444" d="M551.533,326.957l-73.862-114.915l94.295-54.249c0.122-0.06,0.309-0.186,0.437-0.31l88.127,103.265
		L551.533,326.957z"/>
	<polygon fill="#444444" points="555.396,346.45 647.015,290.832 344.818,690.566 	"/>
	<g>
		<polygon fill="#FFFFFF" points="344.818,690.566 318.969,732.794 299.351,700.717 318.161,725.818 		"/>
	</g>
</g>
</svg>
